<?xml version="1.0" encoding="UTF-8" standalone="no"?>
<!DOCTYPE svg PUBLIC "-//W3C//DTD SVG 1.1//EN" "http://www.w3.org/Graphics/SVG/1.1/DTD/svg11.dtd">
<svg width="100%" height="100%" viewBox="0 0 91 58" version="1.1" xmlns="http://www.w3.org/2000/svg" xmlns:xlink="http://www.w3.org/1999/xlink" xml:space="preserve" xmlns:serif="http://www.serif.com/" style="fill-rule:evenodd;clip-rule:evenodd;stroke-linejoin:round;stroke-miterlimit:2;">
    <g transform="matrix(1.17079,0,0,1,1.59186,49.2296)">
        <g opacity="0.5">
            <rect x="0" y="3.505" width="24.456" height="1" style="fill:rgb(52,67,92);"/>
            <rect x="50.486" y="3.505" width="24.456" height="1" style="fill:rgb(52,67,92);"/>
            <g transform="matrix(1,0,0,1,26.6756,7.872)">
                <g>
                    <path d="M0.78,-0.6C0.78,-0.833 0.85,-1.02 0.99,-1.16C1.13,-1.3 1.3,-1.37 1.5,-1.37C1.693,-1.37 1.86,-1.3 2,-1.16C2.14,-1.02 2.21,-0.833 2.21,-0.6C2.21,-0.387 2.14,-0.21 2,-0.07C1.86,0.07 1.693,0.14 1.5,0.14C1.3,0.14 1.13,0.07 0.99,-0.07C0.85,-0.21 0.78,-0.387 0.78,-0.6ZM4.07,0L4.07,-7.87L5.06,-7.87L5.06,0L4.07,0ZM7.22,0L7.22,-7.87L8.26,-7.87L11.1,-2.93L11.95,-1.3L12,-1.3C11.973,-1.7 11.947,-2.113 11.92,-2.54C11.893,-2.967 11.88,-3.387 11.88,-3.8L11.88,-7.87L12.83,-7.87L12.83,0L11.8,0L8.94,-4.96L8.09,-6.58L8.04,-6.58C8.073,-6.18 8.103,-5.773 8.13,-5.36C8.157,-4.947 8.17,-4.533 8.17,-4.12L8.17,0L7.22,0ZM14.99,0L14.99,-7.87L15.98,-7.87L15.98,-3.92L16.02,-3.92L19.3,-7.87L20.42,-7.87L17.96,-4.87L20.81,0L19.69,0L17.34,-4.09L15.98,-2.5L15.98,0L14.99,0Z" style="fill:rgb(52,67,92);fill-rule:nonzero;"/>
                </g>
            </g>
        </g>
    </g>
    <g transform="matrix(0.851538,0,0,1.39726,-63.7974,-213.46)">
        <rect x="74.92" y="178.358" width="106.051" height="5.153" style="fill:rgb(255,204,102);"/>
    </g>
    <g transform="matrix(3.66296,0,0,3.57933,8.22053,35.951)">
        <g>
            <path d="M7.824,1.068C7.824,1.028 7.86,0.954 7.932,0.846C8.004,0.738 8.04,0.668 8.04,0.636C8.04,0.628 8.032,0.624 8.016,0.624C8,0.608 7.988,0.588 7.98,0.564C7.972,0.54 7.916,0.372 7.908,0.348C7.82,0.052 7.68,-0.138 7.488,-0.222C7.296,-0.306 7.056,-0.348 6.768,-0.348L6.744,-0.348C6.72,-0.364 6.696,-0.364 6.672,-0.348C6.656,-0.34 6.628,-0.336 6.588,-0.336C6.524,-0.336 6.492,-0.36 6.492,-0.408C6.492,-0.448 6.476,-0.468 6.444,-0.468C6.412,-0.468 6.38,-0.452 6.348,-0.42C6.308,-0.38 6.28,-0.36 6.264,-0.36C6.24,-0.36 6.196,-0.38 6.132,-0.42C6.068,-0.46 6.004,-0.48 5.94,-0.48C5.908,-0.48 5.888,-0.476 5.88,-0.468C5.864,-0.46 5.844,-0.456 5.82,-0.456C5.812,-0.456 5.812,-0.472 5.82,-0.504C5.836,-0.528 5.836,-0.54 5.82,-0.54C5.812,-0.54 5.792,-0.532 5.76,-0.516C5.728,-0.5 5.696,-0.492 5.664,-0.492C5.608,-0.492 5.548,-0.512 5.484,-0.552C5.452,-0.576 5.392,-0.588 5.304,-0.588L4.44,-0.588C4.392,-0.588 4.344,-0.586 4.296,-0.582C4.248,-0.578 4.2,-0.572 4.152,-0.564C4.104,-0.556 4.056,-0.548 4.008,-0.54C3.96,-0.532 3.908,-0.524 3.852,-0.516C3.676,-0.5 3.498,-0.488 3.318,-0.48C3.138,-0.472 2.96,-0.464 2.784,-0.456C2.608,-0.448 2.432,-0.424 2.256,-0.384C2.08,-0.344 1.904,-0.292 1.728,-0.228C1.648,-0.196 1.556,-0.172 1.452,-0.156L1.176,-0.12C1.152,-0.056 1.126,0.012 1.098,0.084C1.07,0.156 1.036,0.224 0.996,0.288L0.996,0.312C0.988,0.312 0.956,0.362 0.9,0.462C0.844,0.562 0.8,0.62 0.768,0.636C0.784,0.652 0.792,0.668 0.792,0.684C0.792,0.716 0.768,0.732 0.72,0.732C0.728,0.74 0.732,0.748 0.732,0.756C0.732,0.764 0.708,0.79 0.66,0.834C0.612,0.878 0.562,0.92 0.51,0.96C0.458,1 0.42,1.02 0.396,1.02L0.348,1.02C0.332,1.036 0.308,1.044 0.276,1.044C0.236,1.044 0.196,1.024 0.156,0.984C0.14,0.992 0.124,0.984 0.108,0.96C0.1,0.928 0.08,0.912 0.048,0.912C0.048,0.912 0.024,0.904 -0.024,0.888C-0.056,0.888 -0.072,0.868 -0.072,0.828L-0.156,0.816C-0.164,0.84 -0.188,0.852 -0.228,0.852L-0.228,0.84C-0.244,0.832 -0.262,0.826 -0.282,0.822C-0.302,0.818 -0.328,0.816 -0.36,0.816C-0.344,0.768 -0.336,0.74 -0.336,0.732C-0.344,0.74 -0.352,0.744 -0.36,0.744C-0.368,0.744 -0.376,0.748 -0.384,0.756C-0.392,0.764 -0.408,0.768 -0.432,0.768L-0.432,0.744L-0.504,0.72L-0.54,0.72C-0.564,0.72 -0.58,0.724 -0.588,0.732L-0.636,0.732L-0.66,0.696L-0.66,0.708L-0.672,0.708C-0.728,0.708 -0.756,0.688 -0.756,0.648L-0.78,0.648C-0.836,0.648 -0.904,0.668 -0.984,0.708C-1.016,0.724 -1.048,0.734 -1.08,0.738C-1.112,0.742 -1.144,0.744 -1.176,0.744L-1.188,0.744C-1.204,0.744 -1.246,0.738 -1.314,0.726C-1.382,0.714 -1.416,0.7 -1.416,0.684L-1.392,0.66C-1.376,0.652 -1.356,0.644 -1.332,0.636C-1.308,0.628 -1.28,0.62 -1.248,0.612C-1.2,0.604 -1.168,0.568 -1.152,0.504C-1.072,0.464 -0.994,0.422 -0.918,0.378C-0.842,0.334 -0.764,0.288 -0.684,0.24C-0.676,0.248 -0.656,0.252 -0.624,0.252C-0.592,0.252 -0.568,0.232 -0.552,0.192C-0.528,0.152 -0.484,0.132 -0.42,0.132C-0.348,0.092 -0.25,0.038 -0.126,-0.03C-0.002,-0.098 0.12,-0.16 0.24,-0.216C0.36,-0.272 0.448,-0.3 0.504,-0.3C0.568,-0.348 0.622,-0.382 0.666,-0.402C0.71,-0.422 0.768,-0.432 0.84,-0.432C0.848,-0.448 0.88,-0.512 0.888,-0.528L0.924,-0.624C0.916,-0.624 0.912,-0.628 0.912,-0.636C0.912,-0.644 0.916,-0.648 0.924,-0.648C0.94,-0.688 0.962,-0.738 0.99,-0.798C1.018,-0.858 1.052,-0.928 1.092,-1.008C1.132,-1.08 1.166,-1.146 1.194,-1.206C1.222,-1.266 1.244,-1.316 1.26,-1.356C1.276,-1.396 1.316,-1.436 1.38,-1.476C1.444,-1.516 1.476,-1.552 1.476,-1.584C1.476,-1.616 1.472,-1.64 1.464,-1.656C1.448,-1.672 1.44,-1.696 1.44,-1.728C1.44,-1.76 1.462,-1.824 1.506,-1.92C1.55,-2.016 1.6,-2.11 1.656,-2.202C1.712,-2.294 1.752,-2.344 1.776,-2.352L1.776,-2.388C1.768,-2.388 1.764,-2.396 1.764,-2.412C1.764,-2.452 1.784,-2.484 1.824,-2.508C1.84,-2.516 1.856,-2.524 1.872,-2.532C1.888,-2.54 1.9,-2.548 1.908,-2.556L2.016,-2.748C2.032,-2.78 2.05,-2.814 2.07,-2.85C2.09,-2.886 2.108,-2.92 2.124,-2.952C2.156,-3.032 2.194,-3.122 2.238,-3.222C2.282,-3.322 2.356,-3.384 2.46,-3.408C2.436,-3.408 2.424,-3.424 2.424,-3.456C2.424,-3.472 2.436,-3.484 2.46,-3.492C2.468,-3.492 2.48,-3.5 2.496,-3.516C2.488,-3.516 2.484,-3.52 2.484,-3.528L2.472,-3.528C2.272,-3.664 2.1,-3.842 1.956,-4.062C1.812,-4.282 1.74,-4.516 1.74,-4.764C1.74,-4.828 1.75,-4.914 1.77,-5.022C1.79,-5.13 1.822,-5.23 1.866,-5.322C1.91,-5.414 1.964,-5.46 2.028,-5.46C2.068,-5.46 2.094,-5.438 2.106,-5.394C2.118,-5.35 2.124,-5.312 2.124,-5.28C2.124,-5.248 2.122,-5.214 2.118,-5.178C2.114,-5.142 2.108,-5.108 2.1,-5.076C2.076,-5.004 2.064,-4.932 2.064,-4.86C2.064,-4.676 2.128,-4.488 2.256,-4.296C2.384,-4.104 2.52,-3.96 2.664,-3.864C2.776,-4.024 2.9,-4.214 3.036,-4.434C3.172,-4.654 3.31,-4.874 3.45,-5.094C3.59,-5.314 3.712,-5.5 3.816,-5.652C4.008,-5.948 4.206,-6.24 4.41,-6.528C4.614,-6.816 4.836,-7.092 5.076,-7.356C5.1,-7.38 5.148,-7.434 5.22,-7.518C5.292,-7.602 5.374,-7.69 5.466,-7.782C5.558,-7.874 5.642,-7.956 5.718,-8.028C5.794,-8.1 5.848,-8.136 5.88,-8.136C5.92,-8.136 5.936,-8.094 5.928,-8.01C5.92,-7.926 5.932,-7.884 5.964,-7.884C6.004,-7.9 6.03,-7.94 6.042,-8.004C6.054,-8.068 6.066,-8.138 6.078,-8.214C6.09,-8.29 6.116,-8.344 6.156,-8.376C6.188,-8.408 6.228,-8.44 6.276,-8.472C6.3,-8.488 6.336,-8.52 6.384,-8.568C6.416,-8.592 6.44,-8.624 6.456,-8.664C6.464,-8.688 6.492,-8.716 6.54,-8.748L6.564,-8.748C6.58,-8.748 6.588,-8.74 6.588,-8.724L6.588,-8.676L6.6,-8.688C6.64,-8.728 6.668,-8.788 6.684,-8.868C6.7,-8.932 6.736,-8.98 6.792,-9.012C6.808,-9.02 6.832,-9.032 6.864,-9.048C6.896,-9.064 6.912,-9.08 6.912,-9.096C6.912,-9.096 6.904,-9.112 6.888,-9.144C6.864,-9.16 6.852,-9.18 6.852,-9.204L6.852,-9.228C6.852,-9.244 6.89,-9.272 6.966,-9.312C7.042,-9.352 7.118,-9.39 7.194,-9.426C7.27,-9.462 7.308,-9.48 7.308,-9.48C7.324,-9.48 7.332,-9.468 7.332,-9.444C7.332,-9.412 7.316,-9.374 7.284,-9.33C7.252,-9.286 7.224,-9.252 7.2,-9.228L7.248,-9.24C7.264,-9.248 7.284,-9.248 7.308,-9.24C7.332,-9.232 7.356,-9.224 7.38,-9.216C7.42,-9.192 7.46,-9.18 7.5,-9.18L7.548,-9.18C7.564,-9.18 7.572,-9.188 7.572,-9.204C7.572,-9.22 7.552,-9.24 7.512,-9.264C7.464,-9.288 7.44,-9.316 7.44,-9.348C7.44,-9.364 7.45,-9.392 7.47,-9.432C7.49,-9.472 7.508,-9.492 7.524,-9.492C7.54,-9.492 7.548,-9.488 7.548,-9.48C7.532,-9.464 7.54,-9.456 7.572,-9.456C7.588,-9.456 7.608,-9.472 7.632,-9.504C7.64,-9.528 7.656,-9.552 7.68,-9.576L7.716,-9.576C7.732,-9.576 7.744,-9.58 7.752,-9.588C7.752,-9.612 7.744,-9.624 7.728,-9.624C7.712,-9.608 7.704,-9.616 7.704,-9.648C7.704,-9.688 7.754,-9.74 7.854,-9.804C7.954,-9.868 8.016,-9.904 8.04,-9.912C8.16,-9.968 8.286,-10.004 8.418,-10.02C8.55,-10.036 8.684,-10.044 8.82,-10.044C9.036,-10.044 9.252,-10.032 9.468,-10.008C9.684,-9.976 9.896,-9.952 10.104,-9.936C10.184,-9.92 10.28,-9.886 10.392,-9.834C10.504,-9.782 10.588,-9.724 10.644,-9.66L10.644,-9.654C10.644,-9.65 10.648,-9.644 10.656,-9.636C10.656,-9.62 10.652,-9.612 10.644,-9.612C10.628,-9.596 10.62,-9.584 10.62,-9.576C10.62,-9.56 10.654,-9.52 10.722,-9.456C10.79,-9.392 10.858,-9.318 10.926,-9.234C10.994,-9.15 11.028,-9.06 11.028,-8.964C11.028,-8.924 11.032,-8.892 11.04,-8.868L11.04,-8.772C11.04,-8.716 11.024,-8.672 10.992,-8.64C10.952,-8.6 10.932,-8.556 10.932,-8.508C10.932,-8.492 10.936,-8.48 10.944,-8.472L10.944,-8.424C10.944,-8.392 10.93,-8.336 10.902,-8.256C10.874,-8.176 10.86,-8.124 10.86,-8.1C10.852,-8.076 10.836,-8.052 10.812,-8.028L10.764,-7.956C10.748,-7.932 10.736,-7.88 10.728,-7.8C10.72,-7.72 10.696,-7.68 10.656,-7.68C10.648,-7.68 10.636,-7.688 10.62,-7.704L10.596,-7.74L10.584,-7.74C10.544,-7.676 10.52,-7.588 10.512,-7.476C10.504,-7.42 10.494,-7.364 10.482,-7.308C10.47,-7.252 10.448,-7.204 10.416,-7.164C10.104,-6.644 9.744,-6.198 9.336,-5.826C8.928,-5.454 8.472,-5.096 7.968,-4.752C7.584,-4.496 7.162,-4.246 6.702,-4.002C6.242,-3.758 5.766,-3.558 5.274,-3.402C4.782,-3.246 4.296,-3.168 3.816,-3.168C3.672,-3.168 3.512,-3.178 3.336,-3.198C3.16,-3.218 3.008,-3.268 2.88,-3.348C2.6,-2.908 2.326,-2.462 2.058,-2.01C1.79,-1.558 1.564,-1.092 1.38,-0.612C1.516,-0.66 1.654,-0.702 1.794,-0.738C1.934,-0.774 2.076,-0.808 2.22,-0.84C2.356,-0.872 2.496,-0.904 2.64,-0.936C2.784,-0.968 2.924,-1 3.06,-1.032C3.084,-1.04 3.12,-1.06 3.168,-1.092C3.184,-1.108 3.216,-1.124 3.264,-1.14C3.288,-1.148 3.332,-1.152 3.396,-1.152C3.412,-1.144 3.432,-1.14 3.456,-1.14L3.516,-1.14C3.644,-1.14 3.76,-1.164 3.864,-1.212C3.976,-1.26 4.092,-1.284 4.212,-1.284C4.252,-1.284 4.272,-1.276 4.272,-1.26C4.272,-1.236 4.3,-1.224 4.356,-1.224C4.404,-1.224 4.444,-1.236 4.476,-1.26L4.596,-1.296C4.66,-1.304 4.722,-1.31 4.782,-1.314C4.842,-1.318 4.904,-1.32 4.968,-1.32L5.328,-1.32C5.584,-1.32 5.876,-1.31 6.204,-1.29C6.532,-1.27 6.852,-1.23 7.164,-1.17C7.476,-1.11 7.74,-1.016 7.956,-0.888C8.204,-0.76 8.328,-0.552 8.328,-0.264C8.328,-0.208 8.326,-0.156 8.322,-0.108C8.318,-0.06 8.312,-0.008 8.304,0.048C8.296,0.096 8.29,0.144 8.286,0.192C8.282,0.24 8.28,0.292 8.28,0.348C8.28,0.396 8.284,0.432 8.292,0.456C8.3,0.472 8.304,0.5 8.304,0.54C8.304,0.58 8.272,0.642 8.208,0.726C8.144,0.81 8.074,0.888 7.998,0.96C7.922,1.032 7.868,1.068 7.836,1.068L7.824,1.068ZM3.924,-3.528C4.596,-3.528 5.228,-3.64 5.82,-3.864C5.828,-3.864 5.888,-3.892 6,-3.948C6.112,-4.004 6.238,-4.068 6.378,-4.14C6.518,-4.212 6.642,-4.276 6.75,-4.332C6.858,-4.388 6.916,-4.416 6.924,-4.416C6.94,-4.416 6.948,-4.412 6.948,-4.404C6.932,-4.388 6.936,-4.38 6.96,-4.38C7.008,-4.38 7.052,-4.412 7.092,-4.476C7.132,-4.54 7.168,-4.588 7.2,-4.62C7.24,-4.636 7.288,-4.66 7.344,-4.692C7.4,-4.724 7.444,-4.74 7.476,-4.74C7.476,-4.724 7.468,-4.708 7.452,-4.692C7.436,-4.676 7.428,-4.66 7.428,-4.644L7.44,-4.644C7.456,-4.644 7.51,-4.676 7.602,-4.74C7.694,-4.804 7.74,-4.844 7.74,-4.86L7.74,-4.884C7.732,-4.884 7.728,-4.892 7.728,-4.908C7.728,-4.956 7.764,-4.984 7.836,-4.992C7.916,-5.008 7.964,-5.024 7.98,-5.04C8.412,-5.392 8.796,-5.784 9.132,-6.216C9.468,-6.648 9.776,-7.1 10.056,-7.572C10.064,-7.588 10.082,-7.61 10.11,-7.638C10.138,-7.666 10.168,-7.692 10.2,-7.716L10.308,-7.812C10.308,-7.844 10.3,-7.852 10.284,-7.836C10.26,-7.828 10.248,-7.84 10.248,-7.872C10.248,-7.912 10.264,-7.952 10.296,-7.992C10.336,-8.04 10.36,-8.08 10.368,-8.112C10.416,-8.216 10.46,-8.35 10.5,-8.514C10.54,-8.678 10.56,-8.816 10.56,-8.928C10.56,-9.12 10.52,-9.276 10.44,-9.396C10.36,-9.516 10.212,-9.576 9.996,-9.576C9.764,-9.576 9.518,-9.526 9.258,-9.426C8.998,-9.326 8.768,-9.216 8.568,-9.096C8.552,-9.088 8.51,-9.054 8.442,-8.994C8.374,-8.934 8.308,-8.876 8.244,-8.82C8.18,-8.764 8.136,-8.736 8.112,-8.736C8.104,-8.736 8.1,-8.752 8.1,-8.784L8.088,-8.796C8.072,-8.796 8.04,-8.772 7.992,-8.724C7.968,-8.692 7.948,-8.668 7.932,-8.652C7.916,-8.636 7.904,-8.624 7.896,-8.616L7.716,-8.472C7.684,-8.44 7.652,-8.412 7.62,-8.388C7.588,-8.364 7.556,-8.34 7.524,-8.316C7.452,-8.26 7.38,-8.192 7.308,-8.112C7.276,-8.072 7.242,-8.036 7.206,-8.004C7.17,-7.972 7.132,-7.94 7.092,-7.908L7.008,-7.872C6.976,-7.864 6.952,-7.852 6.936,-7.836C6.92,-7.82 6.912,-7.804 6.912,-7.788C6.912,-7.764 6.904,-7.744 6.888,-7.728C6.856,-7.696 6.822,-7.664 6.786,-7.632C6.75,-7.6 6.704,-7.568 6.648,-7.536C6.592,-7.504 6.544,-7.472 6.504,-7.44C6.464,-7.408 6.428,-7.376 6.396,-7.344C6.052,-7.024 5.674,-6.652 5.262,-6.228C4.85,-5.804 4.45,-5.368 4.062,-4.92C3.674,-4.472 3.348,-4.048 3.084,-3.648C3.132,-3.616 3.212,-3.592 3.324,-3.576C3.436,-3.56 3.55,-3.548 3.666,-3.54C3.782,-3.532 3.868,-3.528 3.924,-3.528ZM0.228,0.708C0.308,0.708 0.376,0.66 0.432,0.564C0.488,0.468 0.538,0.36 0.582,0.24C0.626,0.12 0.66,0.028 0.684,-0.036C0.628,-0.036 0.536,-0.022 0.408,0.006C0.28,0.034 0.144,0.07 0,0.114C-0.144,0.158 -0.268,0.208 -0.372,0.264C-0.476,0.32 -0.528,0.376 -0.528,0.432C-0.528,0.472 -0.472,0.514 -0.36,0.558C-0.248,0.602 -0.13,0.638 -0.006,0.666C0.118,0.694 0.196,0.708 0.228,0.708Z" style="fill:rgb(52,67,92);fill-rule:nonzero;"/>
            <path d="M12.48,0.24C12.4,0.144 12.318,0.07 12.234,0.018C12.15,-0.034 12.078,-0.094 12.018,-0.162C11.958,-0.23 11.928,-0.324 11.928,-0.444L11.952,-0.444L11.916,-0.624L11.88,-0.588L11.856,-0.552C11.864,-0.584 11.872,-0.614 11.88,-0.642C11.888,-0.67 11.896,-0.696 11.904,-0.72C11.912,-0.76 11.918,-0.798 11.922,-0.834C11.926,-0.87 11.928,-0.908 11.928,-0.948C11.928,-1.052 11.936,-1.154 11.952,-1.254C11.968,-1.354 11.988,-1.452 12.012,-1.548C12.036,-1.644 12.058,-1.742 12.078,-1.842C12.098,-1.942 12.116,-2.048 12.132,-2.16L12.156,-2.16L12.288,-2.472L12.276,-2.532C12.26,-2.5 12.248,-2.48 12.24,-2.472C12.232,-2.456 12.22,-2.44 12.204,-2.424C12.116,-2.296 12.008,-2.142 11.88,-1.962C11.752,-1.782 11.624,-1.614 11.496,-1.458C11.368,-1.302 11.252,-1.192 11.148,-1.128C11.084,-1.088 11.04,-1.058 11.016,-1.038C10.992,-1.018 10.964,-0.968 10.932,-0.888C10.852,-0.872 10.774,-0.82 10.698,-0.732C10.622,-0.644 10.548,-0.56 10.476,-0.48C10.404,-0.4 10.324,-0.356 10.236,-0.348L10.224,-0.288C10.176,-0.24 10.112,-0.206 10.032,-0.186C9.952,-0.166 9.88,-0.152 9.816,-0.144C9.64,-0.208 9.468,-0.296 9.3,-0.408C9.132,-0.52 9.048,-0.676 9.048,-0.876C9.048,-0.956 9.06,-1.024 9.084,-1.08L9.096,-1.08L9.096,-1.14C9.08,-1.164 9.076,-1.196 9.084,-1.236C9.092,-1.276 9.104,-1.296 9.12,-1.296L9.132,-1.284C9.148,-1.308 9.158,-1.348 9.162,-1.404C9.166,-1.46 9.168,-1.496 9.168,-1.512L9.192,-1.536C9.192,-1.592 9.22,-1.652 9.276,-1.716C9.332,-1.78 9.386,-1.84 9.438,-1.896C9.49,-1.952 9.516,-1.992 9.516,-2.016C9.524,-2.024 9.528,-2.036 9.528,-2.052C9.528,-2.092 9.524,-2.124 9.516,-2.148C9.5,-2.18 9.496,-2.208 9.504,-2.232L9.504,-2.28L9.552,-2.28L9.588,-2.34L9.588,-2.364C9.564,-2.38 9.552,-2.392 9.552,-2.4L9.552,-2.424C9.552,-2.448 9.56,-2.468 9.576,-2.484L9.612,-2.52L9.612,-2.532C9.612,-2.54 9.616,-2.548 9.624,-2.556L9.624,-2.58L9.684,-2.64C9.716,-2.672 9.74,-2.692 9.756,-2.7C9.82,-2.788 9.872,-2.868 9.912,-2.94L9.96,-2.94L9.972,-2.928C9.964,-2.944 9.958,-2.956 9.954,-2.964C9.95,-2.972 9.948,-2.98 9.948,-2.988C9.948,-3.052 10.002,-3.144 10.11,-3.264C10.218,-3.384 10.348,-3.514 10.5,-3.654C10.652,-3.794 10.8,-3.926 10.944,-4.05C11.088,-4.174 11.2,-4.272 11.28,-4.344L11.28,-4.404L11.304,-4.404C11.336,-4.42 11.37,-4.444 11.406,-4.476C11.442,-4.508 11.48,-4.54 11.52,-4.572C11.6,-4.652 11.668,-4.696 11.724,-4.704L11.748,-4.764L11.82,-4.776C11.828,-4.784 11.86,-4.816 11.868,-4.824C11.884,-4.832 11.896,-4.836 11.904,-4.836C11.912,-4.836 11.92,-4.84 11.928,-4.848L11.94,-4.86L11.964,-4.872L11.964,-4.89C11.964,-4.894 11.968,-4.9 11.976,-4.908L12.192,-4.992L12.216,-4.98L12.384,-5.052L12.42,-5.088L12.432,-5.088L12.588,-5.1L12.672,-5.148L12.696,-5.172L12.696,-5.16L12.708,-5.172L12.732,-5.148C12.804,-5.18 12.876,-5.196 12.948,-5.196C13.02,-5.196 13.116,-5.184 13.236,-5.16C13.356,-5.136 13.468,-5.098 13.572,-5.046C13.676,-4.994 13.736,-4.924 13.752,-4.836L13.752,-4.812L13.5,-4.668C13.516,-4.708 13.528,-4.732 13.536,-4.74L13.536,-4.752C13.536,-4.768 13.52,-4.776 13.488,-4.776L13.416,-4.776C13.248,-4.776 13.094,-4.728 12.954,-4.632C12.814,-4.536 12.68,-4.44 12.552,-4.344C12.48,-4.328 12.404,-4.28 12.324,-4.2C12.244,-4.12 12.172,-4.06 12.108,-4.02C11.796,-3.78 11.514,-3.542 11.262,-3.306C11.01,-3.07 10.772,-2.788 10.548,-2.46C10.508,-2.396 10.456,-2.314 10.392,-2.214C10.328,-2.114 10.272,-2.044 10.224,-2.004C10.184,-1.932 10.144,-1.86 10.104,-1.788C10.064,-1.716 10.028,-1.64 9.996,-1.56C9.964,-1.48 9.928,-1.404 9.888,-1.332C9.848,-1.26 9.808,-1.192 9.768,-1.128C9.768,-1.032 9.756,-0.94 9.732,-0.852C9.716,-0.804 9.708,-0.764 9.708,-0.732C9.7,-0.708 9.696,-0.684 9.696,-0.66C9.696,-0.636 9.692,-0.616 9.684,-0.6L9.732,-0.492C9.828,-0.532 9.944,-0.584 10.08,-0.648C10.216,-0.712 10.284,-0.784 10.284,-0.864C10.332,-0.88 10.356,-0.888 10.356,-0.888L10.38,-0.888L10.38,-0.912C10.396,-0.928 10.408,-0.936 10.416,-0.936L10.452,-0.936L10.488,-0.984L10.488,-1.044L10.536,-0.996L10.692,-1.152C10.692,-1.192 10.72,-1.216 10.776,-1.224C10.912,-1.336 11.032,-1.468 11.136,-1.62C11.192,-1.7 11.248,-1.776 11.304,-1.848C11.36,-1.92 11.42,-1.988 11.484,-2.052L11.508,-2.052L11.664,-2.244L11.652,-2.292L11.82,-2.508L11.844,-2.508C11.86,-2.556 11.884,-2.604 11.916,-2.652L11.952,-2.628L12.048,-2.76L12.036,-2.772C12.076,-2.836 12.12,-2.9 12.168,-2.964C12.216,-3.028 12.264,-3.088 12.312,-3.144C12.36,-3.208 12.406,-3.272 12.45,-3.336C12.494,-3.4 12.536,-3.464 12.576,-3.528C12.576,-3.584 12.596,-3.636 12.636,-3.684C12.676,-3.732 12.728,-3.756 12.792,-3.756L12.876,-3.732C12.908,-3.788 12.924,-3.876 12.924,-3.996C12.964,-3.988 12.996,-3.996 13.02,-4.02C13.02,-4.02 13.044,-4.028 13.092,-4.044L13.092,-4.02L13.188,-3.984C13.22,-4 13.244,-4.008 13.26,-4.008C13.324,-4.008 13.388,-3.99 13.452,-3.954C13.516,-3.918 13.572,-3.88 13.62,-3.84C13.62,-3.824 13.624,-3.82 13.632,-3.828C13.632,-3.836 13.636,-3.84 13.644,-3.84L13.704,-3.84C13.808,-3.84 13.86,-3.796 13.86,-3.708L13.86,-3.672C13.82,-3.616 13.782,-3.56 13.746,-3.504C13.71,-3.448 13.676,-3.392 13.644,-3.336C13.58,-3.224 13.492,-3.124 13.38,-3.036L13.38,-3.012L13.188,-2.736L13.212,-2.688L12.804,-2.184L12.768,-2.172C12.752,-2.116 12.734,-2.062 12.714,-2.01C12.694,-1.958 12.672,-1.904 12.648,-1.848L12.54,-1.812C12.556,-1.796 12.564,-1.776 12.564,-1.752C12.564,-1.72 12.568,-1.7 12.576,-1.692C12.512,-1.572 12.458,-1.452 12.414,-1.332C12.37,-1.212 12.356,-1.084 12.372,-0.948C12.348,-0.932 12.334,-0.91 12.33,-0.882C12.326,-0.854 12.324,-0.828 12.324,-0.804C12.324,-0.764 12.326,-0.726 12.33,-0.69C12.334,-0.654 12.34,-0.616 12.348,-0.576C12.356,-0.536 12.388,-0.376 12.396,-0.336L12.528,-0.408L12.564,-0.408L12.576,-0.42L12.6,-0.456C12.6,-0.48 12.612,-0.508 12.636,-0.54L12.66,-0.444L12.768,-0.492L12.768,-0.444L12.78,-0.444C12.812,-0.444 12.836,-0.468 12.852,-0.516C12.868,-0.532 12.888,-0.55 12.912,-0.57C12.936,-0.59 12.964,-0.6 12.996,-0.6L13.008,-0.624L13.008,-0.66C13.008,-0.7 13.036,-0.732 13.092,-0.756C13.124,-0.764 13.15,-0.774 13.17,-0.786C13.19,-0.798 13.208,-0.804 13.224,-0.804L13.236,-0.804L13.548,-1.116L13.56,-1.116C13.576,-1.14 13.61,-1.174 13.662,-1.218C13.714,-1.262 13.76,-1.292 13.8,-1.308L13.8,-1.392L13.884,-1.416L13.896,-1.416L14.172,-1.8C14.172,-1.792 14.18,-1.788 14.196,-1.788C14.212,-1.788 14.224,-1.784 14.232,-1.776C14.24,-1.776 14.254,-1.79 14.274,-1.818C14.294,-1.846 14.304,-1.868 14.304,-1.884C14.312,-1.892 14.322,-1.902 14.334,-1.914C14.346,-1.926 14.368,-1.936 14.4,-1.944C14.424,-1.96 14.444,-1.97 14.46,-1.974C14.476,-1.978 14.488,-1.984 14.496,-1.992C14.408,-1.824 14.33,-1.672 14.262,-1.536C14.194,-1.4 14.128,-1.264 14.064,-1.128C14,-0.992 13.928,-0.862 13.848,-0.738C13.768,-0.614 13.668,-0.492 13.548,-0.372L13.5,-0.42L13.584,-0.528L13.572,-0.6L13.548,-0.588L13.548,-0.54L13.464,-0.456C13.456,-0.352 13.42,-0.276 13.356,-0.228L13.308,-0.228L13.284,-0.24L13.284,-0.18L13.212,-0.096L13.176,-0.108L13.032,0.096L13.032,0.06C13.032,0.06 12.928,0.112 12.912,0.12C12.864,0.136 12.836,0.16 12.828,0.192L12.48,0.24ZM13.68,-0.708C13.68,-0.732 13.684,-0.748 13.692,-0.756L13.716,-0.792L13.668,-0.78L13.68,-0.78L13.644,-0.72L13.656,-0.732L13.68,-0.708Z" style="fill:rgb(52,67,92);fill-rule:nonzero;"/>
            <path d="M14.88,-1.932C14.816,-1.9 14.766,-1.904 14.73,-1.944C14.694,-1.984 14.692,-2.024 14.724,-2.064C14.764,-2.104 14.788,-2.14 14.796,-2.172C14.804,-2.204 14.808,-2.24 14.808,-2.28L14.808,-2.376C14.808,-2.432 14.812,-2.464 14.82,-2.472L14.892,-2.544C14.9,-2.56 14.924,-2.576 14.964,-2.592L15.024,-2.76C14.968,-2.824 14.976,-2.892 15.048,-2.964L15.06,-2.976L15.06,-2.988L15.084,-3.024L15.156,-3.144L15.168,-3.168L15.192,-3.168C15.176,-3.208 15.188,-3.252 15.228,-3.3C15.244,-3.34 15.268,-3.38 15.3,-3.42C15.332,-3.46 15.364,-3.504 15.396,-3.552C15.476,-3.64 15.52,-3.72 15.528,-3.792C15.544,-3.856 15.58,-3.912 15.636,-3.96C15.628,-3.96 15.624,-3.968 15.624,-3.984C15.624,-3.992 15.62,-3.996 15.612,-3.996C15.612,-4.004 15.616,-4.012 15.624,-4.02L15.624,-4.032C15.64,-4.048 15.668,-4.09 15.708,-4.158C15.748,-4.226 15.788,-4.296 15.828,-4.368C15.844,-4.392 15.86,-4.416 15.876,-4.44C15.892,-4.464 15.908,-4.492 15.924,-4.524L15.984,-4.632L15.66,-4.74C15.5,-4.796 15.36,-4.874 15.24,-4.974C15.12,-5.074 15.06,-5.22 15.06,-5.412C15.06,-5.5 15.086,-5.576 15.138,-5.64C15.19,-5.704 15.244,-5.76 15.3,-5.808C15.332,-5.84 15.348,-5.86 15.348,-5.868C15.412,-5.948 15.476,-5.97 15.54,-5.934C15.604,-5.898 15.604,-5.848 15.54,-5.784L15.468,-5.688C15.436,-5.64 15.404,-5.594 15.372,-5.55C15.34,-5.506 15.324,-5.452 15.324,-5.388C15.324,-5.308 15.382,-5.238 15.498,-5.178C15.614,-5.118 15.742,-5.072 15.882,-5.04C16.022,-5.008 16.12,-4.992 16.176,-4.992C16.504,-5.424 16.828,-5.852 17.148,-6.276C17.468,-6.7 17.788,-7.128 18.108,-7.56C18.14,-7.592 18.156,-7.648 18.156,-7.728L18.6,-8.196C18.632,-8.18 18.662,-8.168 18.69,-8.16C18.718,-8.152 18.748,-8.144 18.78,-8.136C18.812,-8.128 18.842,-8.12 18.87,-8.112C18.898,-8.104 18.928,-8.096 18.96,-8.088C19.024,-8.072 19.084,-8.052 19.14,-8.028C19.196,-8.004 19.248,-7.964 19.296,-7.908C19.384,-7.82 19.428,-7.712 19.428,-7.584C19.428,-7.448 19.372,-7.332 19.26,-7.236C19.14,-7.14 19.036,-7.048 18.948,-6.96C18.916,-6.936 18.886,-6.912 18.858,-6.888C18.83,-6.864 18.8,-6.836 18.768,-6.804C18.704,-6.74 18.632,-6.708 18.552,-6.708L18.552,-6.792L18.588,-6.792C18.62,-6.832 18.654,-6.876 18.69,-6.924C18.726,-6.972 18.76,-7.016 18.792,-7.056C18.872,-7.144 18.932,-7.232 18.972,-7.32C18.94,-7.288 18.91,-7.26 18.882,-7.236C18.854,-7.212 18.824,-7.188 18.792,-7.164C18.76,-7.14 18.73,-7.114 18.702,-7.086C18.674,-7.058 18.644,-7.028 18.612,-6.996C18.572,-6.94 18.508,-6.862 18.42,-6.762C18.332,-6.662 18.236,-6.556 18.132,-6.444C18.044,-6.332 17.954,-6.232 17.862,-6.144C17.77,-6.056 17.704,-5.992 17.664,-5.952L17.652,-5.94L17.7,-5.892L17.544,-5.832L17.556,-5.82C17.556,-5.756 17.536,-5.712 17.496,-5.688C17.456,-5.664 17.416,-5.652 17.376,-5.652C17.36,-5.604 17.338,-5.562 17.31,-5.526C17.282,-5.49 17.236,-5.46 17.172,-5.436C17.18,-5.428 17.184,-5.416 17.184,-5.4C17.184,-5.392 17.188,-5.384 17.196,-5.376C17.196,-5.368 17.2,-5.36 17.208,-5.352L17.184,-5.352L17.184,-5.328L17.124,-5.328C17.116,-5.328 17.108,-5.312 17.1,-5.28L17.136,-5.22C17.144,-5.212 17.148,-5.196 17.148,-5.172C17.26,-5.292 17.368,-5.412 17.472,-5.532C17.576,-5.652 17.684,-5.776 17.796,-5.904L18.444,-6.624L18.468,-6.624C18.468,-6.616 18.472,-6.612 18.48,-6.612C18.48,-6.604 18.484,-6.6 18.492,-6.6C18.492,-6.544 18.448,-6.456 18.36,-6.336C18.272,-6.216 18.164,-6.086 18.036,-5.946C17.908,-5.806 17.786,-5.672 17.67,-5.544C17.554,-5.416 17.464,-5.316 17.4,-5.244C17.376,-5.22 17.348,-5.184 17.316,-5.136C17.292,-5.112 17.264,-5.076 17.232,-5.028L17.34,-5.028C17.444,-5.028 17.538,-5.034 17.622,-5.046C17.706,-5.058 17.792,-5.072 17.88,-5.088C17.92,-5.096 17.96,-5.106 18,-5.118C18.04,-5.13 18.08,-5.14 18.12,-5.148C18.16,-5.156 18.32,-5.188 18.36,-5.196C18.456,-5.212 18.584,-5.238 18.744,-5.274C18.904,-5.31 19.02,-5.356 19.092,-5.412C19.3,-5.476 19.504,-5.524 19.704,-5.556C19.704,-5.556 19.736,-5.572 19.752,-5.58C19.768,-5.58 19.78,-5.584 19.788,-5.592C19.804,-5.616 19.824,-5.628 19.848,-5.628L19.944,-5.664L20.04,-5.688L20.04,-5.7C20.152,-5.724 20.26,-5.758 20.364,-5.802C20.468,-5.846 20.576,-5.892 20.688,-5.94C20.792,-5.98 20.894,-6.018 20.994,-6.054C21.094,-6.09 21.196,-6.108 21.3,-6.108L21.336,-6.18C21.432,-6.276 21.54,-6.324 21.66,-6.324L21.66,-6.288C21.692,-6.256 21.708,-6.22 21.708,-6.18C21.708,-6.156 21.7,-6.144 21.684,-6.144C21.612,-6.072 21.532,-6.032 21.444,-6.024C21.452,-6.008 21.458,-5.996 21.462,-5.988C21.466,-5.98 21.468,-5.972 21.468,-5.964C21.468,-5.94 21.456,-5.928 21.432,-5.928C21.4,-5.904 21.36,-5.892 21.312,-5.892C21.272,-5.892 21.252,-5.916 21.252,-5.964L21.288,-5.988C21.24,-5.988 21.208,-5.996 21.192,-6.012C21.136,-5.868 21.044,-5.796 20.916,-5.796L20.892,-5.7L20.76,-5.736C20.72,-5.696 20.68,-5.676 20.64,-5.676C20.624,-5.636 20.61,-5.602 20.598,-5.574C20.586,-5.546 20.556,-5.532 20.508,-5.532C20.516,-5.54 20.52,-5.552 20.52,-5.568C20.512,-5.576 20.508,-5.584 20.508,-5.592C20.452,-5.528 20.386,-5.472 20.31,-5.424C20.234,-5.376 20.144,-5.352 20.04,-5.352L20.028,-5.436L20.016,-5.436C20.024,-5.428 20.028,-5.408 20.028,-5.376C20.028,-5.344 20.014,-5.32 19.986,-5.304C19.958,-5.288 19.936,-5.28 19.92,-5.28C19.912,-5.28 19.908,-5.284 19.908,-5.292L19.884,-5.292C19.844,-5.26 19.808,-5.244 19.776,-5.244C19.76,-5.244 19.748,-5.248 19.74,-5.256L19.704,-5.256C19.664,-5.224 19.628,-5.206 19.596,-5.202C19.564,-5.198 19.516,-5.192 19.452,-5.184C19.348,-5.168 19.238,-5.14 19.122,-5.1C19.006,-5.06 18.896,-5.02 18.792,-4.98C18.784,-4.972 18.764,-4.968 18.732,-4.968C18.716,-4.968 18.708,-4.964 18.708,-4.956C18.46,-4.828 18.208,-4.76 17.952,-4.752C17.68,-4.728 17.416,-4.692 17.16,-4.644C17.136,-4.636 17.112,-4.63 17.088,-4.626C17.064,-4.622 17.036,-4.62 17.004,-4.62C16.972,-4.62 16.944,-4.618 16.92,-4.614C16.896,-4.61 16.872,-4.604 16.848,-4.596C16.8,-4.588 16.74,-4.55 16.668,-4.482C16.596,-4.414 16.528,-4.34 16.464,-4.26C16.4,-4.18 16.352,-4.116 16.32,-4.068C16.288,-4.036 16.252,-4.002 16.212,-3.966C16.172,-3.93 16.132,-3.896 16.092,-3.864C16.012,-3.808 15.94,-3.736 15.876,-3.648C15.86,-3.632 15.84,-3.612 15.816,-3.588C15.792,-3.564 15.772,-3.536 15.756,-3.504C15.716,-3.432 15.668,-3.392 15.612,-3.384C15.628,-3.344 15.62,-3.316 15.588,-3.3L15.564,-3.276C15.492,-3.204 15.456,-3.12 15.456,-3.024C15.432,-3 15.412,-2.968 15.396,-2.928L15.384,-2.88L15.348,-2.832C15.308,-2.776 15.27,-2.71 15.234,-2.634C15.198,-2.558 15.16,-2.476 15.12,-2.388C15.08,-2.3 15.04,-2.218 15,-2.142C14.96,-2.066 14.92,-1.996 14.88,-1.932ZM14.508,1.308C14.452,1.308 14.39,1.296 14.322,1.272C14.254,1.248 14.2,1.216 14.16,1.176C14.12,1.128 14.062,1.042 13.986,0.918C13.91,0.794 13.872,0.7 13.872,0.636C13.872,0.484 13.88,0.336 13.896,0.192C13.912,0.048 13.936,-0.1 13.968,-0.252C14.016,-0.292 14.044,-0.34 14.052,-0.396C14.06,-0.452 14.068,-0.508 14.076,-0.564C14.14,-0.628 14.176,-0.708 14.184,-0.804C14.192,-0.9 14.24,-0.948 14.328,-0.948L14.352,-0.972C14.36,-0.98 14.356,-1 14.34,-1.032C14.324,-1.072 14.312,-1.106 14.304,-1.134C14.296,-1.162 14.304,-1.196 14.328,-1.236C14.336,-1.252 14.344,-1.27 14.352,-1.29C14.36,-1.31 14.368,-1.324 14.376,-1.332C14.384,-1.34 14.396,-1.368 14.412,-1.416C14.436,-1.504 14.458,-1.582 14.478,-1.65C14.498,-1.718 14.54,-1.788 14.604,-1.86C14.644,-1.892 14.68,-1.894 14.712,-1.866C14.744,-1.838 14.756,-1.804 14.748,-1.764C14.748,-1.716 14.736,-1.668 14.712,-1.62L14.808,-1.62C14.776,-1.468 14.74,-1.316 14.7,-1.164C14.66,-1.012 14.62,-0.86 14.58,-0.708C14.484,-0.412 14.436,-0.108 14.436,0.204C14.436,0.484 14.492,0.744 14.604,0.984L14.772,0.888L14.832,0.78L14.832,0.912L14.856,0.972C14.872,0.932 14.896,0.896 14.928,0.864C14.96,0.832 15.008,0.816 15.072,0.816L15.084,0.9C15.084,0.924 15.08,0.94 15.072,0.948C15.024,1.052 14.948,1.138 14.844,1.206C14.74,1.274 14.628,1.308 14.508,1.308Z" style="fill:rgb(52,67,92);fill-rule:nonzero;"/>
            <path d="M17.616,-0.108C17.528,-0.108 17.44,-0.12 17.352,-0.144C17.224,-0.192 17.096,-0.324 16.968,-0.54L17.064,-0.564L16.98,-0.624L16.884,-0.924L16.872,-0.924C16.864,-0.948 16.86,-0.984 16.86,-1.032L16.86,-1.116C16.86,-1.148 16.88,-1.204 16.92,-1.284C16.96,-1.364 16.996,-1.44 17.028,-1.512L16.908,-1.488L16.908,-1.548C16.916,-1.556 16.928,-1.576 16.944,-1.608C16.952,-1.632 16.972,-1.648 17.004,-1.656C17.012,-1.648 17.016,-1.636 17.016,-1.62L17.04,-1.644L17.04,-1.704C17.04,-1.736 17.042,-1.77 17.046,-1.806C17.05,-1.842 17.064,-1.872 17.088,-1.896C17.088,-1.944 17.092,-1.972 17.1,-1.98L17.112,-2.028L17.136,-2.028L17.136,-2.076L17.208,-2.172C17.248,-2.212 17.272,-2.232 17.28,-2.232L17.28,-2.244C17.272,-2.236 17.26,-2.232 17.244,-2.232C17.212,-2.232 17.196,-2.248 17.196,-2.28C17.196,-2.288 17.2,-2.296 17.208,-2.304L17.208,-2.364C17.216,-2.372 17.22,-2.392 17.22,-2.424C17.22,-2.456 17.212,-2.48 17.196,-2.496L17.28,-2.592L17.328,-2.58L17.316,-2.592L17.34,-2.592L17.352,-2.604L17.388,-2.736L17.448,-2.64L17.484,-2.844C17.492,-2.884 17.524,-3.044 17.532,-3.084L17.664,-3.096L17.664,-3.192L17.628,-3.192L17.628,-3.252L17.688,-3.312L17.688,-3.3L17.7,-3.312L17.7,-3.372L17.808,-3.444L17.808,-3.492C17.864,-3.524 17.912,-3.58 17.952,-3.66C17.976,-3.716 18.032,-3.752 18.12,-3.768L18.048,-3.768L18.06,-3.78L18.012,-3.744L18.012,-3.84L18.036,-3.84L18.048,-3.864L18.06,-3.864L18.084,-3.912L18.084,-3.972C18.132,-4.004 18.182,-4.044 18.234,-4.092C18.286,-4.14 18.312,-4.192 18.312,-4.248L18.36,-4.284L18.36,-4.332L18.408,-4.308L18.564,-4.452L18.564,-4.5L18.66,-4.56L18.708,-4.632C18.708,-4.656 18.72,-4.668 18.744,-4.668C18.752,-4.668 18.77,-4.662 18.798,-4.65C18.826,-4.638 18.848,-4.628 18.864,-4.62L18.936,-4.62C19.064,-4.62 19.192,-4.574 19.32,-4.482C19.448,-4.39 19.556,-4.28 19.644,-4.152C19.732,-4.024 19.776,-3.896 19.776,-3.768C19.776,-3.728 19.788,-3.688 19.812,-3.648C19.82,-3.624 19.826,-3.6 19.83,-3.576C19.834,-3.552 19.836,-3.524 19.836,-3.492L19.836,-3.444C19.836,-3.412 19.832,-3.392 19.824,-3.384C19.688,-3.064 19.478,-2.756 19.194,-2.46C18.91,-2.164 18.616,-1.932 18.312,-1.764C18.248,-1.732 18.176,-1.7 18.096,-1.668C18.016,-1.636 17.936,-1.62 17.856,-1.62C17.832,-1.62 17.816,-1.624 17.808,-1.632L17.724,-1.656C17.748,-1.664 17.784,-1.684 17.832,-1.716C17.848,-1.724 18,-1.8 18,-1.8C18.016,-1.8 18.028,-1.804 18.036,-1.812L18.024,-1.824C18.024,-1.856 18.044,-1.872 18.084,-1.872C18.132,-1.904 18.172,-1.924 18.204,-1.932L18.324,-1.968C18.372,-1.984 18.414,-1.998 18.45,-2.01C18.486,-2.022 18.504,-2.044 18.504,-2.076C18.536,-2.1 18.576,-2.152 18.624,-2.232C18.68,-2.328 18.72,-2.388 18.744,-2.412L18.852,-2.436L18.972,-2.616L18.948,-2.664L19.044,-2.712L19.044,-2.76L19.068,-2.76C19.156,-2.856 19.226,-2.942 19.278,-3.018C19.33,-3.094 19.376,-3.196 19.416,-3.324C19.416,-3.34 19.428,-3.348 19.452,-3.348L19.452,-3.36C19.5,-3.456 19.524,-3.548 19.524,-3.636C19.524,-3.828 19.432,-3.924 19.248,-3.924C19.232,-3.924 19.212,-3.928 19.188,-3.936C19.156,-3.936 19.14,-3.928 19.14,-3.912L19.2,-3.912L19.14,-3.864C19.1,-3.848 19.062,-3.824 19.026,-3.792C18.99,-3.76 18.972,-3.716 18.972,-3.66L18.924,-3.66C18.94,-3.66 18.952,-3.644 18.96,-3.612C18.904,-3.612 18.864,-3.596 18.84,-3.564L18.9,-3.528C18.884,-3.512 18.864,-3.498 18.84,-3.486C18.816,-3.474 18.792,-3.46 18.768,-3.444C18.744,-3.436 18.72,-3.426 18.696,-3.414C18.672,-3.402 18.652,-3.388 18.636,-3.372C18.548,-3.308 18.504,-3.248 18.504,-3.192C18.504,-3.184 18.508,-3.176 18.516,-3.168C18.524,-3.16 18.534,-3.152 18.546,-3.144C18.558,-3.136 18.572,-3.124 18.588,-3.108L18.492,-3.12C18.492,-3.12 18.496,-3.122 18.504,-3.126C18.512,-3.13 18.52,-3.132 18.528,-3.132C18.496,-3.132 18.472,-3.128 18.456,-3.12C18.44,-3.12 18.44,-3.112 18.456,-3.096L18.468,-3.084L18.462,-3.084C18.458,-3.084 18.456,-3.08 18.456,-3.072C18.448,-3.064 18.444,-3.056 18.444,-3.048L18.42,-3.048C18.388,-3.008 18.358,-2.968 18.33,-2.928C18.302,-2.888 18.28,-2.848 18.264,-2.808C18.232,-2.736 18.188,-2.664 18.132,-2.592L18.216,-2.532L18.132,-2.532L18.084,-2.484L18.084,-2.424L18.012,-2.364L18.036,-2.352L17.916,-2.148L17.88,-2.136L17.88,-2.04L17.748,-1.896L17.76,-1.848L17.736,-1.848L17.736,-1.764C17.68,-1.708 17.644,-1.636 17.628,-1.548C17.62,-1.468 17.588,-1.388 17.532,-1.308L17.604,-1.308L17.508,-1.248L17.508,-1.212C17.5,-1.204 17.496,-1.192 17.496,-1.176C17.496,-1.144 17.498,-1.116 17.502,-1.092C17.506,-1.068 17.512,-1.044 17.52,-1.02C17.528,-0.996 17.534,-0.972 17.538,-0.948C17.542,-0.924 17.544,-0.896 17.544,-0.864C17.544,-0.8 17.57,-0.718 17.622,-0.618C17.674,-0.518 17.728,-0.468 17.784,-0.468C17.936,-0.468 18.088,-0.508 18.24,-0.588C18.384,-0.676 18.532,-0.724 18.684,-0.732L18.936,-0.936C19.064,-1.04 19.176,-1.164 19.272,-1.308C19.376,-1.452 19.492,-1.576 19.62,-1.68L19.632,-1.68L19.608,-1.704C19.632,-1.736 19.668,-1.784 19.716,-1.848C19.764,-1.912 19.792,-1.964 19.8,-2.004C19.808,-2.012 19.812,-2.028 19.812,-2.052C19.812,-2.068 19.816,-2.08 19.824,-2.088C19.84,-2.128 19.864,-2.148 19.896,-2.148C19.928,-2.148 19.944,-2.128 19.944,-2.088C19.944,-2.064 19.94,-2.048 19.932,-2.04C19.932,-1.96 19.898,-1.846 19.83,-1.698C19.762,-1.55 19.684,-1.46 19.596,-1.428L19.596,-1.392C19.556,-1.352 19.516,-1.296 19.476,-1.224C19.42,-1.152 19.342,-1.052 19.242,-0.924C19.142,-0.796 19.06,-0.732 18.996,-0.732L18.828,-0.624L18.828,-0.576C18.828,-0.536 18.804,-0.508 18.756,-0.492C18.724,-0.452 18.684,-0.436 18.636,-0.444C18.612,-0.396 18.572,-0.364 18.516,-0.348C18.492,-0.34 18.456,-0.32 18.408,-0.288C18.392,-0.264 18.354,-0.24 18.294,-0.216C18.234,-0.192 18.192,-0.176 18.168,-0.168C18.128,-0.136 18.08,-0.118 18.024,-0.114C17.968,-0.11 17.92,-0.108 17.88,-0.108L17.616,-0.108Z" style="fill:rgb(52,67,92);fill-rule:nonzero;"/>
        </g>
    </g>
</svg>
